REM DIRINDEX 1\2,1\3,1\4
REM DIRNAME cjc153,folder01,folder02,folder03
TITLE ""
FILE "Track26.mp3" MP3
  TRACK 01 AUDIO
    TITLE "0:"
    INDEX 01 00:00:00
  TRACK 02 AUDIO
    TITLE "4:cjc153_1582"
    INDEX 01 00:00:07
  TRACK 03 AUDIO
    TITLE "0:"
    INDEX 01 00:02:12
  TRACK 04 AUDIO
    TITLE "2:cjc153_1583"
    INDEX 01 00:02:71
  TRACK 05 AUDIO
    TITLE "0:"
    INDEX 01 00:04:09
  TRACK 06 AUDIO
    TITLE "3:cjc153_1584"
    INDEX 01 00:04:40
  TRACK 07 AUDIO
    TITLE "0:"
    INDEX 01 00:05:61
  TRACK 08 AUDIO
    TITLE "2:cjc153_1585"
    INDEX 01 00:06:33
  TRACK 09 AUDIO
    TITLE "0:"
    INDEX 01 00:07:45
  TRACK 10 AUDIO
    TITLE "3:cjc153_1586"
    INDEX 01 00:08:03
  TRACK 11 AUDIO
    TITLE "0:"
    INDEX 01 00:09:20
  TRACK 12 AUDIO
    TITLE "2:cjc153_1587"
    INDEX 01 00:09:65
  TRACK 13 AUDIO
    TITLE "0:"
    INDEX 01 00:10:68
  TRACK 14 AUDIO
    TITLE "3:cjc153_1588"
    INDEX 01 00:11:25
  TRACK 15 AUDIO
    TITLE "0:"
    INDEX 01 00:12:34
  TRACK 16 AUDIO
    TITLE "2:cjc153_1589"
    INDEX 01 00:13:02
  TRACK 17 AUDIO
    TITLE "0:"
    INDEX 01 00:13:67
  TRACK 18 AUDIO
    TITLE "3:cjc153_1590"
    INDEX 01 00:14:25
  TRACK 19 AUDIO
    TITLE "0:"
    INDEX 01 00:15:23
  TRACK 20 AUDIO
    TITLE "2:cjc153_1591"
    INDEX 01 00:15:68
  TRACK 21 AUDIO
    TITLE "0:"
    INDEX 01 00:16:63
  TRACK 22 AUDIO
    TITLE "3:cjc153_1592"
    INDEX 01 00:17:20
  TRACK 23 AUDIO
    TITLE "0:"
    INDEX 01 00:18:21
  TRACK 24 AUDIO
    TITLE "2:cjc153_1593"
    INDEX 01 00:18:68
  TRACK 25 AUDIO
    TITLE "0:"
    INDEX 01 00:19:69
  TRACK 26 AUDIO
    TITLE "3:cjc153_1594"
    INDEX 01 00:20:26
  TRACK 27 AUDIO
    TITLE "0:"
    INDEX 01 00:21:35
  TRACK 28 AUDIO
    TITLE "2:cjc153_1595"
    INDEX 01 00:22:03
  TRACK 29 AUDIO
    TITLE "0:"
    INDEX 01 00:23:03
  TRACK 30 AUDIO
    TITLE "3:cjc153_1596"
    INDEX 01 00:23:36
  TRACK 31 AUDIO
    TITLE "0:"
    INDEX 01 00:24:35
  TRACK 32 AUDIO
    TITLE "2:cjc153_1597"
    INDEX 01 00:25:07
  TRACK 33 AUDIO
    TITLE "0:"
    INDEX 01 00:26:07
  TRACK 34 AUDIO
    TITLE "3:cjc153_1598"
    INDEX 01 00:26:40
  TRACK 35 AUDIO
    TITLE "0:"
    INDEX 01 00:27:47
  TRACK 36 AUDIO
    TITLE "2:cjc153_1599"
    INDEX 01 00:28:17
  TRACK 37 AUDIO
    TITLE "0:"
    INDEX 01 00:29:11
  TRACK 38 AUDIO
    TITLE "3:cjc153_1600"
    INDEX 01 00:29:44
  TRACK 39 AUDIO
    TITLE "0:"
    INDEX 01 00:30:46
  TRACK 40 AUDIO
    TITLE "2:cjc153_1601"
    INDEX 01 00:31:20
  TRACK 41 AUDIO
    TITLE "0:"
    INDEX 01 00:32:17
  TRACK 42 AUDIO
    TITLE "3:cjc153_1602"
    INDEX 01 00:32:50
  TRACK 43 AUDIO
    TITLE "0:"
    INDEX 01 00:33:52
  TRACK 44 AUDIO
    TITLE "2:cjc153_1603"
    INDEX 01 00:34:22
  TRACK 45 AUDIO
    TITLE "0:"
    INDEX 01 00:35:17
  TRACK 46 AUDIO
    TITLE "3:cjc153_1604"
    INDEX 01 00:35:51
  TRACK 47 AUDIO
    TITLE "0:"
    INDEX 01 00:36:50
  TRACK 48 AUDIO
    TITLE "2:cjc153_1605"
    INDEX 01 00:37:18
  TRACK 49 AUDIO
    TITLE "0:"
    INDEX 01 00:38:20
  TRACK 50 AUDIO
    TITLE "3:cjc153_1606"
    INDEX 01 00:38:53
  TRACK 51 AUDIO
    TITLE "0:"
    INDEX 01 00:39:60
  TRACK 52 AUDIO
    TITLE "2:cjc153_1607"
    INDEX 01 00:40:30
  TRACK 53 AUDIO
    TITLE "0:"
    INDEX 01 00:41:24
  TRACK 54 AUDIO
    TITLE "3:cjc153_1608"
    INDEX 01 00:41:57
  TRACK 55 AUDIO
    TITLE "0:"
    INDEX 01 00:42:55
  TRACK 56 AUDIO
    TITLE "2:cjc153_1609"
    INDEX 01 00:43:27
  TRACK 57 AUDIO
    TITLE "0:"
    INDEX 01 00:44:44
  TRACK 58 AUDIO
    TITLE "3:cjc153_1610"
    INDEX 01 00:45:02
  TRACK 59 AUDIO
    TITLE "0:"
    INDEX 01 00:46:27
  TRACK 60 AUDIO
    TITLE "2:cjc153_1611"
    INDEX 01 00:46:70
  TRACK 61 AUDIO
    TITLE "0:"
    INDEX 01 00:47:66
  TRACK 62 AUDIO
    TITLE "3:cjc153_1612"
    INDEX 01 00:48:22
  TRACK 63 AUDIO
    TITLE "0:"
    INDEX 01 00:49:25
  TRACK 64 AUDIO
    TITLE "2:cjc153_1613"
    INDEX 01 00:49:70
  TRACK 65 AUDIO
    TITLE "0:"
    INDEX 01 00:51:20
  TRACK 66 AUDIO
    TITLE "3:cjc153_1614"
    INDEX 01 00:51:52
  TRACK 67 AUDIO
    TITLE "0:"
    INDEX 01 00:53:04
  TRACK 68 AUDIO
    TITLE "2:cjc153_1615"
    INDEX 01 00:53:47
  TRACK 69 AUDIO
    TITLE "0:"
    INDEX 01 00:54:60
  TRACK 70 AUDIO
    TITLE "3:cjc153_1616"
    INDEX 01 00:55:20
  TRACK 71 AUDIO
    TITLE "0:"
    INDEX 01 00:56:39
  TRACK 72 AUDIO
    TITLE "2:cjc153_1617"
    INDEX 01 00:57:07
  TRACK 73 AUDIO
    TITLE "0:"
    INDEX 01 00:57:74
  TRACK 74 AUDIO
    TITLE "3:cjc153_1618"
    INDEX 01 00:58:34
  TRACK 75 AUDIO
    TITLE "0:"
    INDEX 01 00:59:32
  TRACK 76 AUDIO
    TITLE "2:cjc153_1619"
    INDEX 01 01:00:02
  TRACK 77 AUDIO
    TITLE "0:"
    INDEX 01 01:01:11
  TRACK 78 AUDIO
    TITLE "3:cjc153_1620"
    INDEX 01 01:01:42
  TRACK 79 AUDIO
    TITLE "0:"
    INDEX 01 01:02:55
  TRACK 80 AUDIO
    TITLE "2:cjc153_1621"
    INDEX 01 01:03:26
  TRACK 81 AUDIO
    TITLE "0:"
    INDEX 01 01:04:47
  TRACK 82 AUDIO
    TITLE "3:cjc153_1622"
    INDEX 01 01:05:05
  TRACK 83 AUDIO
    TITLE "0:"
    INDEX 01 01:06:28
  TRACK 84 AUDIO
    TITLE "2:cjc153_1623"
    INDEX 01 01:07:00
  TRACK 85 AUDIO
    TITLE "0:"
    INDEX 01 01:07:74
  TRACK 86 AUDIO
    TITLE "3:cjc153_1624"
    INDEX 01 01:08:31
  TRACK 87 AUDIO
    TITLE "0:"
    INDEX 01 01:09:38
  TRACK 88 AUDIO
    TITLE "2:cjc153_1625"
    INDEX 01 01:10:10
  TRACK 89 AUDIO
    TITLE "0:"
    INDEX 01 01:11:09
  TRACK 90 AUDIO
    TITLE "3:cjc153_1626"
    INDEX 01 01:11:41
  TRACK 91 AUDIO
    TITLE "0:"
    INDEX 01 01:12:44
  TRACK 92 AUDIO
    TITLE "2:cjc153_1627"
    INDEX 01 01:13:16
  TRACK 93 AUDIO
    TITLE "0:"
    INDEX 01 01:14:21
  TRACK 94 AUDIO
    TITLE "3:cjc153_1628"
    INDEX 01 01:14:53
  TRACK 95 AUDIO
    TITLE "0:"
    INDEX 01 01:15:64
  TRACK 96 AUDIO
    TITLE "2:cjc153_1629"
    INDEX 01 01:16:32
  TRACK 97 AUDIO
    TITLE "0:"
    INDEX 01 01:17:41
  TRACK 98 AUDIO
    TITLE "3:cjc153_1630"
    INDEX 01 01:17:73
  TRACK 99 AUDIO
    TITLE "0:"
    INDEX 01 01:19:09
  TRACK 100 AUDIO
    TITLE "2:cjc153_1631"
    INDEX 01 01:19:56
  TRACK 101 AUDIO
    TITLE "0:"
    INDEX 01 01:21:00
  TRACK 102 AUDIO
    TITLE "3:cjc153_1632"
    INDEX 01 01:21:33
  TRACK 103 AUDIO
    TITLE "0:"
    INDEX 01 01:22:66
  TRACK 104 AUDIO
    TITLE "2:cjc153_1633"
    INDEX 01 01:23:36
  TRACK 105 AUDIO
    TITLE "0:"
    INDEX 01 01:24:43
  TRACK 106 AUDIO
    TITLE "3:cjc153_1634"
    INDEX 01 01:25:00
  TRACK 107 AUDIO
    TITLE "0:"
    INDEX 01 01:26:17
  TRACK 108 AUDIO
    TITLE "2:cjc153_1635"
    INDEX 01 01:26:68
  TRACK 109 AUDIO
    TITLE "0:"
    INDEX 01 01:27:65
  TRACK 110 AUDIO
    TITLE "3:cjc153_1636"
    INDEX 01 01:28:24
  TRACK 111 AUDIO
    TITLE "0:"
    INDEX 01 01:29:23
